<mxfile host="app.diagrams.net" modified="2024-07-19T15:08:04.004Z" agent="Mozilla/5.0 (Windows NT 10.0; Win64; x64) AppleWebKit/537.36 (KHTML, like Gecko) Chrome/126.0.0.0 Safari/537.36" etag="vRg3sS_Wnwv_Qi9DQACz" version="24.7.1" type="device" pages="2">
  <diagram id="C5RBs43oDa-KdzZeNtuy" name="Page-1">
    <mxGraphModel dx="6040" dy="3376" grid="1" gridSize="10" guides="1" tooltips="1" connect="1" arrows="1" fold="1" page="1" pageScale="1" pageWidth="1024" pageHeight="1024" background="none" math="0" shadow="0">
      <root>
        <mxCell id="WIyWlLk6GJQsqaUBKTNV-0" />
        <mxCell id="WIyWlLk6GJQsqaUBKTNV-1" parent="WIyWlLk6GJQsqaUBKTNV-0" />
        <mxCell id="_I_vfGUpyIuBSDdJH7Mv-2" value="" style="rounded=0;whiteSpace=wrap;html=1;gradientColor=#394149;gradientDirection=west;fillColor=#555C63;movable=0;resizable=0;rotatable=0;deletable=0;editable=0;locked=1;connectable=0;strokeColor=none;" vertex="1" parent="WIyWlLk6GJQsqaUBKTNV-1">
          <mxGeometry width="1024" height="1024" as="geometry" />
        </mxCell>
        <mxCell id="_I_vfGUpyIuBSDdJH7Mv-3" value="" style="rounded=1;whiteSpace=wrap;html=1;arcSize=7;gradientColor=#B78747;gradientDirection=west;fillColor=#F8ED9E;strokeColor=none;movable=1;resizable=1;rotatable=1;deletable=1;editable=1;locked=0;connectable=1;" vertex="1" parent="WIyWlLk6GJQsqaUBKTNV-1">
          <mxGeometry x="276" y="180" width="473" height="390" as="geometry" />
        </mxCell>
        <mxCell id="WIyWlLk6GJQsqaUBKTNV-2" value="" style="rounded=0;html=1;jettySize=auto;orthogonalLoop=1;fontSize=11;endArrow=block;endFill=0;endSize=8;strokeWidth=14;shadow=0;labelBackgroundColor=none;edgeStyle=orthogonalEdgeStyle;strokeColor=#303841;" parent="WIyWlLk6GJQsqaUBKTNV-1" source="WIyWlLk6GJQsqaUBKTNV-3" target="WIyWlLk6GJQsqaUBKTNV-6" edge="1">
          <mxGeometry relative="1" as="geometry" />
        </mxCell>
        <mxCell id="WIyWlLk6GJQsqaUBKTNV-3" value="" style="rounded=1;whiteSpace=wrap;html=1;fontSize=12;glass=0;strokeWidth=14;shadow=0;strokeColor=#303841;fillColor=none;" parent="WIyWlLk6GJQsqaUBKTNV-1" vertex="1">
          <mxGeometry x="347.5" y="250" width="120" height="70" as="geometry" />
        </mxCell>
        <mxCell id="WIyWlLk6GJQsqaUBKTNV-5" value="" style="edgeStyle=orthogonalEdgeStyle;rounded=0;html=1;jettySize=auto;orthogonalLoop=1;fontSize=11;endArrow=block;endFill=0;endSize=8;strokeWidth=14;shadow=0;labelBackgroundColor=none;strokeColor=#303841;" parent="WIyWlLk6GJQsqaUBKTNV-1" source="WIyWlLk6GJQsqaUBKTNV-6" target="WIyWlLk6GJQsqaUBKTNV-7" edge="1">
          <mxGeometry y="10" relative="1" as="geometry">
            <mxPoint as="offset" />
          </mxGeometry>
        </mxCell>
        <mxCell id="WIyWlLk6GJQsqaUBKTNV-6" value="" style="rhombus;whiteSpace=wrap;html=1;shadow=0;fontFamily=Helvetica;fontSize=12;align=center;strokeWidth=14;spacing=6;spacingTop=-4;strokeColor=#303841;fillColor=none;" parent="WIyWlLk6GJQsqaUBKTNV-1" vertex="1">
          <mxGeometry x="330" y="430" width="155" height="90" as="geometry" />
        </mxCell>
        <mxCell id="WIyWlLk6GJQsqaUBKTNV-7" value="" style="rounded=1;whiteSpace=wrap;html=1;fontSize=12;glass=0;strokeWidth=14;shadow=0;strokeColor=#303841;fillColor=none;" parent="WIyWlLk6GJQsqaUBKTNV-1" vertex="1">
          <mxGeometry x="565" y="444.02" width="105" height="67.98" as="geometry" />
        </mxCell>
        <mxCell id="_I_vfGUpyIuBSDdJH7Mv-0" value="Ratel" style="text;align=center;verticalAlign=middle;whiteSpace=wrap;rounded=0;fontSize=280;fontColor=#b78747;labelBackgroundColor=none;labelBorderColor=none;strokeColor=none;fillColor=none;fontFamily=Verdana;fontStyle=0;textShadow=0;html=1;" vertex="1" parent="WIyWlLk6GJQsqaUBKTNV-1">
          <mxGeometry x="102" y="640" width="820" height="290" as="geometry" />
        </mxCell>
        <mxCell id="_I_vfGUpyIuBSDdJH7Mv-4" value="" style="rounded=1;whiteSpace=wrap;html=1;fontSize=12;glass=0;strokeWidth=14;shadow=0;strokeColor=#303841;fillColor=none;" vertex="1" parent="WIyWlLk6GJQsqaUBKTNV-1">
          <mxGeometry x="555" y="250" width="125" height="70" as="geometry" />
        </mxCell>
        <mxCell id="_I_vfGUpyIuBSDdJH7Mv-5" value="" style="rounded=0;html=1;jettySize=auto;orthogonalLoop=1;fontSize=11;endArrow=block;endFill=0;endSize=8;strokeWidth=14;shadow=0;labelBackgroundColor=none;edgeStyle=orthogonalEdgeStyle;strokeColor=#303841;entryX=0.5;entryY=1;entryDx=0;entryDy=0;exitX=0.5;exitY=0;exitDx=0;exitDy=0;" edge="1" parent="WIyWlLk6GJQsqaUBKTNV-1" source="WIyWlLk6GJQsqaUBKTNV-7" target="_I_vfGUpyIuBSDdJH7Mv-4">
          <mxGeometry relative="1" as="geometry">
            <mxPoint x="380" y="290" as="sourcePoint" />
            <mxPoint x="380" y="414" as="targetPoint" />
          </mxGeometry>
        </mxCell>
      </root>
    </mxGraphModel>
  </diagram>
  <diagram name="Copy of Page-1" id="B6XVlyDScVIY8iRzZ2JF">
    <mxGraphModel dx="3020" dy="1688" grid="1" gridSize="10" guides="1" tooltips="1" connect="1" arrows="1" fold="1" page="1" pageScale="1" pageWidth="1024" pageHeight="1024" background="none" math="0" shadow="0">
      <root>
        <mxCell id="Me-PADPf9NKM5ZsVeWbX-0" />
        <mxCell id="Me-PADPf9NKM5ZsVeWbX-1" parent="Me-PADPf9NKM5ZsVeWbX-0" />
        <mxCell id="Me-PADPf9NKM5ZsVeWbX-3" value="" style="rounded=1;whiteSpace=wrap;html=1;arcSize=19;gradientColor=#B78747;gradientDirection=west;fillColor=#F8ED9E;strokeColor=none;movable=1;resizable=1;rotatable=1;deletable=1;editable=1;locked=0;connectable=1;" vertex="1" parent="Me-PADPf9NKM5ZsVeWbX-1">
          <mxGeometry width="1020" height="1020" as="geometry" />
        </mxCell>
        <mxCell id="Me-PADPf9NKM5ZsVeWbX-4" value="" style="rounded=0;html=1;jettySize=auto;orthogonalLoop=1;fontSize=11;endArrow=block;endFill=0;endSize=8;strokeWidth=48;shadow=0;labelBackgroundColor=none;edgeStyle=orthogonalEdgeStyle;strokeColor=#314354;fillColor=#647687;" edge="1" parent="Me-PADPf9NKM5ZsVeWbX-1" source="Me-PADPf9NKM5ZsVeWbX-5" target="Me-PADPf9NKM5ZsVeWbX-7">
          <mxGeometry relative="1" as="geometry" />
        </mxCell>
        <mxCell id="Me-PADPf9NKM5ZsVeWbX-5" value="" style="rounded=1;whiteSpace=wrap;html=1;fontSize=12;glass=0;strokeWidth=48;shadow=0;strokeColor=#314354;fillColor=#314354;fontColor=#ffffff;" vertex="1" parent="Me-PADPf9NKM5ZsVeWbX-1">
          <mxGeometry x="140" y="100" width="240" height="120" as="geometry" />
        </mxCell>
        <mxCell id="Me-PADPf9NKM5ZsVeWbX-6" value="" style="edgeStyle=orthogonalEdgeStyle;rounded=0;html=1;jettySize=auto;orthogonalLoop=1;fontSize=11;endArrow=block;endFill=0;endSize=8;strokeWidth=48;shadow=0;labelBackgroundColor=none;strokeColor=#314354;fillColor=#647687;" edge="1" parent="Me-PADPf9NKM5ZsVeWbX-1" source="Me-PADPf9NKM5ZsVeWbX-7" target="Me-PADPf9NKM5ZsVeWbX-8">
          <mxGeometry y="10" relative="1" as="geometry">
            <mxPoint as="offset" />
          </mxGeometry>
        </mxCell>
        <mxCell id="Me-PADPf9NKM5ZsVeWbX-7" value="" style="rhombus;whiteSpace=wrap;html=1;shadow=0;fontFamily=Helvetica;fontSize=12;align=center;strokeWidth=48;spacing=6;spacingTop=-4;strokeColor=#314354;fillColor=#314354;fontColor=#ffffff;" vertex="1" parent="Me-PADPf9NKM5ZsVeWbX-1">
          <mxGeometry x="130" y="430" width="260" height="127.5" as="geometry" />
        </mxCell>
        <mxCell id="Me-PADPf9NKM5ZsVeWbX-10" value="" style="rounded=1;whiteSpace=wrap;html=1;fontSize=12;glass=0;strokeWidth=48;shadow=0;strokeColor=#B20000;fillColor=#b20000;arcSize=50;fontColor=#ffffff;" vertex="1" parent="Me-PADPf9NKM5ZsVeWbX-1">
          <mxGeometry x="730" y="770" width="120" height="120" as="geometry" />
        </mxCell>
        <mxCell id="Me-PADPf9NKM5ZsVeWbX-11" value="" style="rounded=0;html=1;jettySize=auto;orthogonalLoop=1;fontSize=11;endArrow=block;endFill=0;endSize=8;strokeWidth=48;shadow=0;labelBackgroundColor=none;edgeStyle=orthogonalEdgeStyle;strokeColor=#B20000;entryX=0.5;entryY=0;entryDx=0;entryDy=0;exitX=0.5;exitY=1;exitDx=0;exitDy=0;fillColor=#e51400;" edge="1" parent="Me-PADPf9NKM5ZsVeWbX-1" source="Me-PADPf9NKM5ZsVeWbX-8" target="Me-PADPf9NKM5ZsVeWbX-10">
          <mxGeometry relative="1" as="geometry">
            <mxPoint x="380" y="290" as="sourcePoint" />
            <mxPoint x="380" y="414" as="targetPoint" />
          </mxGeometry>
        </mxCell>
        <mxCell id="FJlJ51K0d1Re3T3hxjq0-0" value="" style="rounded=1;whiteSpace=wrap;html=1;fontSize=12;glass=0;strokeWidth=48;shadow=0;strokeColor=#314354;fillColor=#314354;arcSize=50;fontColor=#ffffff;" vertex="1" parent="Me-PADPf9NKM5ZsVeWbX-1">
          <mxGeometry x="200" y="776" width="120" height="114" as="geometry" />
        </mxCell>
        <mxCell id="FJlJ51K0d1Re3T3hxjq0-1" value="" style="rounded=0;html=1;jettySize=auto;orthogonalLoop=1;fontSize=11;endArrow=block;endFill=0;endSize=8;strokeWidth=48;shadow=0;labelBackgroundColor=none;edgeStyle=orthogonalEdgeStyle;strokeColor=#314354;entryX=0.5;entryY=0;entryDx=0;entryDy=0;exitX=0.5;exitY=1;exitDx=0;exitDy=0;fillColor=#647687;" edge="1" parent="Me-PADPf9NKM5ZsVeWbX-1" target="FJlJ51K0d1Re3T3hxjq0-0" source="Me-PADPf9NKM5ZsVeWbX-7">
          <mxGeometry relative="1" as="geometry">
            <mxPoint x="260" y="580" as="sourcePoint" />
            <mxPoint x="-120" y="440" as="targetPoint" />
          </mxGeometry>
        </mxCell>
        <mxCell id="Me-PADPf9NKM5ZsVeWbX-8" value="" style="rounded=1;whiteSpace=wrap;html=1;fontSize=12;glass=0;strokeWidth=48;shadow=0;strokeColor=#314354;fillColor=#314354;fontColor=#ffffff;" vertex="1" parent="Me-PADPf9NKM5ZsVeWbX-1">
          <mxGeometry x="670" y="431.88" width="240" height="123.75" as="geometry" />
        </mxCell>
      </root>
    </mxGraphModel>
  </diagram>
</mxfile>
